#!OML:ASF F:\VICON\USERDATA\INSTALL\rory3\rory3.ASF
:FULLY-SPECIFIED
:DEGREES
75
root -0.7880743601026262 17.549707822094348 29.838529114277986 4.360097816552987 1.96366991150098 -2.1738454601102513
lfemur -15.572401811673256 1.9119368806212163 -19.88771013922058
ltibia 58.02749164734013
lfoot 8.302502869522563 -12.285254733830634
ltoes -6.701665368451922
rfemur -15.773616055598705 4.043616429090401 30.438686427592774
rtibia 48.554107806911084
rfoot 13.166626100880917 -8.654573765681674
rtoes 10.816913366982085
lowerback 15.145006155626996 -0.33797094721602317 0.7134988792442606
upperback -0.461675710051367 -0.22639844620370508 2.578719016118651
thorax -8.417142274953331 -0.29143876241424865 2.8559146975392546
lowerneck -17.836947007797512 -3.595691113546258 -3.297130392490816
upperneck 10.44409153442263 -4.688811850560102 3.4616534784321638
head 6.6985138703446925 -2.3325858720392034 0.7990713911738315
lclavicle -6.51638041133143e-16 -4.8741542690601e-15
lhumerus -54.36327500975931 -14.504901709354879 96.01122853249532
lradius 113.67048775563481
lwrist 31.1379622100028
lhand -31.111181830964835 0.6594526976636386
lfingers 7.125019999999998
lthumb -4.585701905021099 30.585567116462485
rclavicle -6.488434016469663e-16 -4.861470117552434e-15
rhumerus -47.2530457583988 14.221785039662699 -98.69276392414874
rradius 101.26248362745334
rwrist -8.414062287381336
rhand -18.23566208388135 37.6977184838793
rfingers 7.125019999999998
rthumb 7.955126370393958 7.968045452068374
76
root -0.7946303813673432 17.577788215340906 30.60033301468119 4.417035787209517 1.622034964924317 -2.4950642438026174
lfemur -19.435747211314915 3.3680111352118582 -19.178703401206263
ltibia 68.01090643802408
lfoot 8.43524609266607 -12.009420362675726
ltoes -6.859115863797516
rfemur -14.711061078464178 4.102321436982232 30.713077521047282
rtibia 51.1524598357415
rfoot 12.149403132132337 -8.9891429551303
rtoes 8.271949367724465
lowerback 15.287259391488496 -0.20929495072797988 1.3077422892105843
upperback -0.39350887486617775 0.035587675635924465 2.72950169770073
thorax -8.451012745029011 -0.32099898398804577 2.8691448697579864
lowerneck -17.802122258514732 -3.632129110897658 -3.3072106971599307
upperneck 10.597691420548701 -4.580530048358839 3.4049848693408555
head 6.6815156570816 -2.350976395941593 0.7913758856436106
lclavicle -6.516380215312962e-16 -4.8741542424406715e-15
lhumerus -55.512280481284094 -14.505564219515138 96.12815872447041
lradius 112.65013131491753
lwrist 30.880856032111293
lhand -31.09989606381154 0.5944272227415967
lfingers 7.125019999999998
lthumb -4.580631544267109 30.508747499622565
rclavicle -6.488433921795747e-16 -4.861470110639032e-15
rhumerus -47.20876190167165 14.262666072956716 -98.87393982781907
rradius 100.2008282255012
rwrist -8.497248083519796
rhand -18.238515166296775 37.6667702615413
rfingers 7.125019999999998
rthumb 7.938058405765532 7.945151471974309
77
root -0.7975375711611417 17.59169576781139 31.361373447113124 4.492124866736546 1.2415070010622389 -2.7517327237292797
lfemur -22.827359529587994 4.548830141957341 -18.678053939786075
ltibia 78.46047341989292
lfoot 7.872048131308697 -12.124370518900925
ltoes -7.2558918150645155
rfemur -13.580543168781219 4.171462863359068 31.03950680444728
rtibia 51.48975125978998
rfoot 11.43908113406407 -9.44126900235783
rtoes 5.002841676858331
lowerback 15.37906771237552 -0.041456852783626985 1.856055813556139
upperback -0.30174250823704046 0.36535546604377533 2.7734329792053942
thorax -8.527804920638564 -0.3216503617723933 2.8112965790411906
lowerneck -17.786293472950884 -3.6539775507264793 -3.3133392434715443
upperneck 10.712398077665371 -4.48683565576246 3.342490000023794
head 6.661328243348856 -2.3669536627801135 0.796114445399803
lclavicle -6.516381956171231e-16 -4.87415433031804e-15
lhumerus -56.54383749947834 -14.545987868380768 96.15186785748539
lradius 111.63547242903682
lwrist 30.603559037943786
lhand -31.087183398393627 0.5455049448679107
lfingers 7.125019999999998
lthumb -4.568984504798303 30.448841414095817
rclavicle -6.488433734891439e-16 -4.861470097988525e-15
rhumerus -47.319971541586476 14.173218215667394 -98.95754814817043
rradius 99.71430135563261
rwrist -8.971682110535257
rhand -18.243334968749163 37.661921796472974
rfingers 7.125019999999998
rthumb 7.9178051700444065 7.918811223027565
78
root -0.7964885099530011 17.59500188279126 32.20510814543851 4.586808273746485 0.8938570298115952 -2.9295537664405327
lfemur -25.622837947037723 5.310163321059045 -18.19592757367387
ltibia 87.98267380432254
lfoot 7.056686521403213 -12.65578890181888
ltoes -7.479266172685628
rfemur -12.434737725496145 4.181959310915453 31.34021125768502
rtibia 50.742017469436526
rfoot 11.053515547076932 -9.707174374992384
rtoes 1.3029392644904778
lowerback 15.427921034987664 0.14437983932860676 2.341745812007376
upperback -0.2515530897692624 0.6885635356845758 2.6955063492329834
thorax -8.634978353016058 -0.29396900436422696 2.683482369173956
lowerneck -17.805884602691535 -3.6632830632516393 -3.3138398248391465
upperneck 10.762442483167446 -4.460928776517946 3.291392333589926
head 6.641865113371658 -2.3818428354520793 0.8121681268678786
lclavicle -6.516381152690952e-16 -4.874154284499549e-15
lhumerus -57.033574935363376 -14.387860309503266 96.20818148416107
lradius 110.6061468182733
lwrist 30.340974059895746
lhand -31.07310014182203 0.5121965191542364
lfingers 7.125019999999998
lthumb -4.558323661529224 30.396665405020237
rclavicle -6.488433964198833e-16 -4.8614701140622705e-15
rhumerus -46.96718630296072 14.34348626041183 -98.89243421385915
rradius 99.74578494854508
rwrist -9.859404744556208
rhand -18.24059136704717 37.70018682596345
rfingers 7.125019999999998
rthumb 7.904243020511501 7.91177579213335
79
root -0.7910382384362843 17.586189777989972 33.059172425772914 4.6966973766321445 0.5359601759186253 -3.0770877298235453
lfemur -28.056939400889622 5.615333215920561 -17.80313604743124
ltibia 95.39674321075847
lfoot 7.844806387882523 -12.796489897366982
ltoes -7.53502087146179
rfemur -11.29778327876657 4.247253055838236 31.553785758731998
rtibia 49.87537102528985
rfoot 10.929606226295233 -9.458996620031002
rtoes -1.7930224426102135
lowerback 15.483797128193789 0.33354052729343153 2.799741677591101
upperback -0.2670180429778771 0.9926143643432437 2.5631365398728825
thorax -8.761525813115322 -0.23753917162618537 2.493838515079771
lowerneck -17.840487939841857 -3.6728079906395896 -3.3101555573936015
upperneck 10.80405794214295 -4.466300215347904 3.281081025391295
head 6.630867171906923 -2.3883950156909743 0.8394395743599635
lclavicle -6.516382309740838e-16 -4.8741543764185176e-15
lhumerus -56.895952470954995 -14.023281543635083 96.37784426474292
lradius 109.53993299258033
lwrist 30.136053393055896
lhand -31.06478577286278 0.484701389434147
lfingers 7.125019999999998
lthumb -4.551578196335286 30.348071216717667
rclavicle -6.488433980549408e-16 -4.861470115025352e-15
rhumerus -46.881669052942044 14.272647394648494 -98.88182650535745
rradius 100.22823595452088
rwrist -11.190862808300256
rhand -18.238893751679907 37.74368005333679
rfingers 7.125019999999998
rthumb 7.900681993406917 7.927747818810294
80
root -0.780686076269774 17.570125107003303 34.00659419559685 4.8122181319909325 0.19529350112025468 -3.1652728763518123
lfemur -30.105286733488462 5.500682054409857 -17.5794983249337
ltibia 100.10805479113793
lfoot 8.273738487247472 -12.699889828122032
ltoes -7.814873808694532
rfemur -10.881804477976036 4.105149843987675 31.488781376823702
rtibia 49.035106740265796
rfoot 10.509439193263384 -9.190901307120408
rtoes -4.516098939355551
lowerback 15.550445813615916 0.5168103063067873 3.2535207613652695
upperback -0.33862593010831615 1.284443978942752 2.435363701257386
thorax -8.894714067623768 -0.15338171287562546 2.2434089384985105
lowerneck -17.82964618498215 -3.6757178233698866 -3.2989077956567736
upperneck 10.923228929188028 -4.470309068756109 3.336209344827969
head 6.628273090743053 -2.388810077270634 0.8751746756235039
lclavicle -6.516382345880991e-16 -4.874154371298395e-15
lhumerus -57.3119768426947 -13.854109403873816 96.51085818932094
lradius 108.43126412602851
lwrist 29.889694683627233
lhand -31.05838292745077 0.46810609469355013
lfingers 7.125019999999998
lthumb -4.552516343891368 30.2984330945839
rclavicle -6.488434092176913e-16 -4.861470123126761e-15
rhumerus -46.726894877474045 14.236122692159249 -98.7314672504627
rradius 101.15099390251446
rwrist -12.754834694272908
rhand -18.236732978792013 37.7864117073564
rfingers 7.125019999999998
rthumb 7.902976154352955 7.953801575287912
81
root -0.7663964621254173 17.541466306200373 34.89794129797731 4.920540463272205 -0.13762230243935902 -3.2206033379617685
lfemur -31.91078244421598 4.813115620527119 -17.549607797315705
ltibia 101.92169537396236
lfoot 8.741385483454952 -13.980650123193936
ltoes -8.229880960199214
rfemur -10.634693300593737 3.962234939613917 31.35990659760889
rtibia 48.369055543352324
rfoot 10.385577007885896 -8.981088377558704
rtoes -6.2712325072115895
lowerback 15.576544579010537 0.6934383566521587 3.698704925629546
upperback -0.45628792189460043 1.5354862883244829 2.320363622996015
thorax -9.018406249497563 -0.0410894535795735 1.9402869707156487
lowerneck -17.827127536558844 -3.693380988687491 -3.288867562443466
upperneck 11.12063128111202 -4.479560095908138 3.4264386428353704
head 6.633639390424316 -2.3912241220773676 0.9194440067900913
lclavicle -6.51638207106718e-16 -4.874154346163653e-15
lhumerus -57.85989134051201 -13.83634700027052 96.76556109156186
lradius 107.29842620000684
lwrist 29.573823246220496
lhand -31.057827587369083 0.45774761013661625
lfingers 7.125019999999998
lthumb -4.562055093188487 30.248238157237648
rclavicle -6.488434132391061e-16 -4.861470126168345e-15
rhumerus -46.9793581848785 14.033159347534225 -98.80695374897245
rradius 102.53536375018425
rwrist -14.168459642207733
rhand -18.2254679453233 37.849940768745014
rfingers 7.125019999999998
rthumb 7.917717108932687 7.9956824105593
82
root -0.7478162664622152 17.50590768455316 35.8369552320804 5.013215070041287 -0.4507890367327756 -3.2214742215702543
lfemur -33.43785191978878 3.416129402017226 -17.59468799399112
ltibia 100.83933996556888
lfoot 9.97334436833472 -14.020974906043065
ltoes -8.62520941749126
rfemur -10.543629711368615 3.8000079570645013 31.1860527254465
rtibia 47.82312512425998
rfoot 10.399698433860644 -8.791265864629452
rtoes -7.191912461782344
lowerback 15.497543383191816 0.8641274211096484 4.108525442333444
upperback -0.5820136347167333 1.7956972195990712 2.2497630279469716
thorax -9.12198109946314 0.09363076581573948 1.5817610367335857
lowerneck -17.844125863544036 -3.727651481520134 -3.2787866687862115
upperneck 11.303991897840447 -4.511375755406653 3.547851472029351
head 6.646000061589082 -2.4023081258606074 0.9661084707819692
lclavicle -6.51638212342145e-16 -4.874154351328326e-15
lhumerus -58.38656337239597 -13.934404593831456 97.06043508852862
lradius 106.18516703316868
lwrist 29.29238364470475
lhand -31.065471088555135 0.446488059812187
lfingers 7.125019999999998
lthumb -4.582975732123018 30.195909896336072
rclavicle -6.488434094372852e-16 -4.8614701235180085e-15
rhumerus -47.19568958622453 13.874084126783108 -98.7386349997193
rradius 104.3678992045813
rwrist -15.32445616884482
rhand -18.206121723315412 37.919018709281076
rfingers 7.125019999999998
rthumb 7.944100651581839 8.04419578445869
